<svg xmlns="http://www.w3.org/2000/svg" viewBox="0 0 712.24 142.53"><title>Outstep logo</title><g id="Layer_2" data-name="Layer 2"><g id="Layer_1-2" data-name="Layer 1"><path d="M90.24,120.39l-.72-.35-1-.46a43.83,43.83,0,0,0-7.79-2.65l-.17,0a45.51,45.51,0,0,0-9.93-1.11h0a46.88,46.88,0,0,1,0-93.76h.08a46.49,46.49,0,0,1,45.33,36.2,46.47,46.47,0,0,1-3.19,34,67.74,67.74,0,0,1,10.07,6,58.05,58.05,0,0,1,9.85,8.93c.19-.31.37-.63.55-.95l.21-.36h0a71.37,71.37,0,0,0,3.72-61.59h0a71,71,0,0,0-7.47-13.74v0c-1-1.41-2-2.78-3.1-4.12l0,0c-1.07-1.33-2.2-2.62-3.36-3.87l-.05,0c-1.16-1.24-2.37-2.43-3.61-3.58a.6.6,0,0,1-.08-.08c-.63-.57-1.26-1.14-1.91-1.69h0c-.63-.54-1.27-1.07-1.91-1.59l-.12-.09c-.65-.52-1.31-1-2-1.52l-.11-.08c-.64-.47-1.28-.93-1.94-1.38l-.16-.11c-.67-.46-1.36-.91-2-1.35l-.2-.12c-.65-.41-1.3-.81-2-1.2L107,9.6c-.7-.41-1.41-.8-2.12-1.18l-.29-.15c-.66-.35-1.32-.69-2-1l-.22-.11c-.72-.35-1.44-.68-2.17-1L99.85,6c-.67-.29-1.35-.58-2-.85L97.59,5c-.74-.29-1.48-.57-2.23-.84L94.92,4c-.69-.25-1.38-.48-2.08-.7l-.23-.08c-.76-.23-1.52-.46-2.28-.67l-.5-.13q-1.06-.29-2.13-.54l-.23-.06c-.77-.18-1.55-.34-2.33-.5l-.55-.1c-.73-.14-1.47-.27-2.21-.39l-.19,0C81.4.71,80.6.61,79.8.51L79.23.45C78.45.36,77.68.28,76.9.22h-.12C76,.15,75.16.11,74.34.07l-.6,0c-.82,0-1.65,0-2.47,0h0A71.27,71.27,0,0,0,.09,67.6C0,68.81,0,70,0,71.27a71.48,71.48,0,0,0,.57,9.07c.23,1.78.52,3.55.88,5.29.24,1.16.5,2.31.79,3.45.63,2.43,1.39,4.81,2.25,7.14.47,1.24,1,2.47,1.5,3.68.34.76.68,1.51,1,2.26.25.52.5,1,.77,1.55.62,1.21,1.28,2.4,2,3.58a71.81,71.81,0,0,0,11.1,14.37l0,0A71.58,71.58,0,0,0,27,127.12l.57.45c1.11.86,2.25,1.69,3.41,2.49.79.54,1.6,1.07,2.41,1.58a70.87,70.87,0,0,0,37.86,10.89h0c.77,0,1.55,0,2.32,0l.55,0c.59,0,1.17-.05,1.75-.09l.67,0,1.62-.13.62-.07,1.64-.19.48-.07,1.77-.25.37-.07c.62-.1,1.24-.21,1.85-.33l.31-.06,1.89-.4.22,0c.66-.15,1.31-.31,2-.48l.09,0c.69-.18,1.37-.37,2.05-.57h0a71.07,71.07,0,0,0,14-5.84h0l.13-.08A39.33,39.33,0,0,0,90.24,120.39Z"/><path d="M72.16,89.5v0c-.3,0-.59,0-.9,0A17.67,17.67,0,1,1,88.15,77.11l22.78-15.2a40.88,40.88,0,1,0-40.21,48h0A50.13,50.13,0,0,1,90.55,114a45.57,45.57,0,0,1,20,16.75,71.46,71.46,0,0,0,17.1-15.9h0c.39-.51.78-1,1.16-1.54l.13-.18c.14-.2.28-.41.43-.61C116.78,96.83,93.91,89.5,72.16,89.5Z"/><path d="M246.43,79a39.66,39.66,0,1,1-39.65-39.76A39.8,39.8,0,0,1,246.43,79Zm-62.36,0a22.6,22.6,0,1,0,22.71-22.48A22.61,22.61,0,0,0,184.07,79Z"/><path d="M328.9,78c0,25.42-16,40.78-37.5,40.78-21.81,0-36.61-15.36-36.61-40.78V40.56h18.53V78c0,14.8,6.33,23.61,18.08,23.61,11.52,0,18.75-8.81,18.75-23.61V40.56H328.9Z"/><path d="M410.93,57.74H383.7v59.65H365V57.74H337.72V40.56h73.21Z"/><path d="M480.86,64.85H462.45c0-3.84-4.52-9-12.43-9-5.54,0-12.32,2.49-12.32,6.9,0,3.72,5.09,5.19,15.93,8,12.09,3.16,29.15,7.23,29.15,24.17,0,14.69-12.88,23.84-30.84,23.84-24.06,0-34.12-16.27-34.12-28.24h18.42s1.46,12.2,16.72,12.2c8.24,0,11.29-3.5,11.29-6.78,0-4.86-6.44-6.55-13.55-8.25C439.17,85,419,80.67,419,63.61c0-14,13.78-24.4,31.29-24.4C470.24,39.21,480.86,52.88,480.86,64.85Z"/><path d="M561.64,57.74H534.41v59.65H515.66V57.74H488.43V40.56h73.21Z"/><path d="M633.15,40.56V57.74H592.82V71h33.67V87H592.82v13.21h40.33v17.18H574.29V40.56Z"/><path d="M712.24,70.16c0,15.14-9.6,29.83-29.26,29.83H666.26v17.4H647.62V40.56h35.47C702.75,40.56,712.24,55.25,712.24,70.16Zm-46-12.42V82.93h14.68c7.46,0,12.54-4.41,12.54-12.77s-5.08-12.31-12.54-12.42Z"/></g></g></svg>